<?xml version="1.0" standalone="no"?><!DOCTYPE svg PUBLIC "-//W3C//DTD SVG 1.1//EN" "http://www.w3.org/Graphics/SVG/1.1/DTD/svg11.dtd"><svg t="1742383209149" class="icon" viewBox="0 0 1024 1024" version="1.1" xmlns="http://www.w3.org/2000/svg" p-id="20589" xmlns:xlink="http://www.w3.org/1999/xlink" width="200" height="200"><path d="M82.098087 335.322899l385.855072 229.108869A44.521739 44.521739 0 0 1 489.73913 602.720464v369.218782a44.521739 44.521739 0 0 1-68.11826 37.754435l-385.855073-241.15942A44.521739 44.521739 0 0 1 14.84058 730.779826V373.611594a44.521739 44.521739 0 0 1 67.257507-38.288695z" fill="#4D7CFE" p-id="20590"></path><path d="M941.901913 335.322899l-385.855072 229.108869A44.521739 44.521739 0 0 0 534.26087 602.720464v369.218782a44.521739 44.521739 0 0 0 68.11826 37.754435l385.855073-241.15942A44.521739 44.521739 0 0 0 1009.15942 730.779826V373.611594a44.521739 44.521739 0 0 0-67.257507-38.288695z" fill="#93A8FF" p-id="20591"></path><path d="M551.594667 12.629333l429.931594 208.821797a29.681159 29.681159 0 0 1 1.766029 52.47629L556.863072 517.594899a89.043478 89.043478 0 0 1-88.345971 0L42.102725 273.91258a29.681159 29.681159 0 0 1 1.751188-52.46145L473.785507 12.629333a89.043478 89.043478 0 0 1 77.80916 0z" fill="#4D7CFE" p-id="20592"></path><path d="M138.373565 464.317217L370.569275 593.326377A29.681159 29.681159 0 0 1 385.855072 619.26771v5.016116a13.222957 13.222957 0 0 1-19.648927 11.560812L134.010435 506.835478A29.681159 29.681159 0 0 1 118.724638 480.894145v-5.016116a13.222957 13.222957 0 0 1 19.648927-11.575652zM138.373565 553.360696L370.569275 682.369855A29.681159 29.681159 0 0 1 385.855072 708.311188v5.016116a13.222957 13.222957 0 0 1-19.648927 11.560812L134.010435 595.878957A29.681159 29.681159 0 0 1 118.724638 569.937623v-5.016116a13.222957 13.222957 0 0 1 19.648927-11.575652z" fill="#FCCA1F" p-id="20593"></path><path d="M138.373565 657.244754L370.569275 786.253913A29.681159 29.681159 0 0 1 385.855072 812.195246v5.016116a13.222957 13.222957 0 0 1-19.648927 11.560812L134.010435 699.763014A29.681159 29.681159 0 0 1 118.724638 673.821681v-5.016116a13.222957 13.222957 0 0 1 19.648927-11.575652z" fill="#FF364A" p-id="20594"></path></svg>